<mxfile host="app.diagrams.net" agent="Mozilla/5.0 (Windows NT 10.0; Win64; x64) AppleWebKit/537.36 (KHTML, like Gecko) Chrome/136.0.0.0 Safari/537.36" version="27.0.9">
  <diagram name="Страница — 1" id="0z7rLIHbsUD_InL6ZS7y">
    <mxGraphModel dx="1737" dy="1023" grid="1" gridSize="10" guides="1" tooltips="1" connect="1" arrows="1" fold="1" page="1" pageScale="1" pageWidth="1654" pageHeight="1169" math="0" shadow="0">
      <root>
        <mxCell id="0" />
        <mxCell id="1" parent="0" />
        <mxCell id="41b57TqwvEw0KBt_91cO-15" style="edgeStyle=orthogonalEdgeStyle;rounded=0;orthogonalLoop=1;jettySize=auto;html=1;endArrow=none;startFill=0;" parent="1" source="8o0WiqyueD_pK0ntcIQN-4" edge="1">
          <mxGeometry relative="1" as="geometry">
            <mxPoint x="480" y="670" as="targetPoint" />
            <Array as="points">
              <mxPoint x="480" y="675" />
            </Array>
          </mxGeometry>
        </mxCell>
        <mxCell id="E9pD4ErWtiB1vOTbF7-b-1" value="" style="edgeStyle=orthogonalEdgeStyle;rounded=0;orthogonalLoop=1;jettySize=auto;html=1;exitX=0;exitY=0.5;exitDx=0;exitDy=0;" parent="1" source="8o0WiqyueD_pK0ntcIQN-4" target="8o0WiqyueD_pK0ntcIQN-12" edge="1">
          <mxGeometry relative="1" as="geometry">
            <Array as="points">
              <mxPoint x="80" y="675" />
              <mxPoint x="80" y="740" />
              <mxPoint x="240" y="740" />
            </Array>
          </mxGeometry>
        </mxCell>
        <mxCell id="8o0WiqyueD_pK0ntcIQN-4" value="Данные введены коректно?" style="rhombus;whiteSpace=wrap;html=1;fontFamily=Times New Roman;fontSize=14;" parent="1" vertex="1">
          <mxGeometry x="140" y="630" width="200" height="90" as="geometry" />
        </mxCell>
        <mxCell id="41b57TqwvEw0KBt_91cO-6" value="" style="edgeStyle=orthogonalEdgeStyle;rounded=0;orthogonalLoop=1;jettySize=auto;html=1;" parent="1" source="8o0WiqyueD_pK0ntcIQN-6" target="41b57TqwvEw0KBt_91cO-5" edge="1">
          <mxGeometry relative="1" as="geometry" />
        </mxCell>
        <mxCell id="8o0WiqyueD_pK0ntcIQN-6" value="Выбор маршрута" style="rounded=0;whiteSpace=wrap;html=1;fontFamily=Times New Roman;fontSize=14;" parent="1" vertex="1">
          <mxGeometry x="140" y="150" width="200" height="80" as="geometry" />
        </mxCell>
        <mxCell id="8o0WiqyueD_pK0ntcIQN-11" style="edgeStyle=orthogonalEdgeStyle;rounded=0;orthogonalLoop=1;jettySize=auto;html=1;fontSize=14;" parent="1" source="8o0WiqyueD_pK0ntcIQN-10" target="8o0WiqyueD_pK0ntcIQN-6" edge="1">
          <mxGeometry relative="1" as="geometry" />
        </mxCell>
        <mxCell id="8o0WiqyueD_pK0ntcIQN-10" value="Начало" style="rounded=1;whiteSpace=wrap;html=1;arcSize=50;fontFamily=Times New Roman;fontSize=14;" parent="1" vertex="1">
          <mxGeometry x="140" y="70" width="200" height="40" as="geometry" />
        </mxCell>
        <mxCell id="E9pD4ErWtiB1vOTbF7-b-2" value="" style="edgeStyle=orthogonalEdgeStyle;rounded=0;orthogonalLoop=1;jettySize=auto;html=1;" parent="1" source="8o0WiqyueD_pK0ntcIQN-12" target="8o0WiqyueD_pK0ntcIQN-25" edge="1">
          <mxGeometry relative="1" as="geometry" />
        </mxCell>
        <mxCell id="8o0WiqyueD_pK0ntcIQN-12" value="Создание брони" style="rounded=0;whiteSpace=wrap;html=1;fontFamily=Times New Roman;fontSize=14;" parent="1" vertex="1">
          <mxGeometry x="140" y="760" width="200" height="80" as="geometry" />
        </mxCell>
        <mxCell id="8o0WiqyueD_pK0ntcIQN-18" value="Да" style="text;html=1;align=center;verticalAlign=middle;resizable=0;points=[];autosize=1;strokeColor=none;fillColor=none;fontFamily=Times New Roman;fontSize=14;" parent="1" vertex="1">
          <mxGeometry x="100" y="650" width="40" height="30" as="geometry" />
        </mxCell>
        <mxCell id="8o0WiqyueD_pK0ntcIQN-19" value="Нет" style="text;html=1;align=center;verticalAlign=middle;resizable=0;points=[];autosize=1;strokeColor=none;fillColor=none;fontFamily=Times New Roman;fontSize=14;" parent="1" vertex="1">
          <mxGeometry x="340" y="650" width="50" height="30" as="geometry" />
        </mxCell>
        <mxCell id="E9pD4ErWtiB1vOTbF7-b-4" style="edgeStyle=orthogonalEdgeStyle;rounded=0;orthogonalLoop=1;jettySize=auto;html=1;endArrow=none;startFill=0;" parent="1" source="8o0WiqyueD_pK0ntcIQN-22" edge="1">
          <mxGeometry relative="1" as="geometry">
            <mxPoint x="670" y="480" as="targetPoint" />
            <Array as="points">
              <mxPoint x="1020" y="480" />
            </Array>
          </mxGeometry>
        </mxCell>
        <mxCell id="8o0WiqyueD_pK0ntcIQN-22" value="Отображение сообщения об ошибке" style="rounded=0;whiteSpace=wrap;html=1;fontFamily=Times New Roman;fontSize=14;" parent="1" vertex="1">
          <mxGeometry x="920" y="140" width="200" height="90" as="geometry" />
        </mxCell>
        <mxCell id="8o0WiqyueD_pK0ntcIQN-25" value="1" style="ellipse;whiteSpace=wrap;html=1;aspect=fixed;fontFamily=Times New Roman;fontSize=14;" parent="1" vertex="1">
          <mxGeometry x="220" y="880" width="40" height="40" as="geometry" />
        </mxCell>
        <mxCell id="TZxyhcO4MmRTKTHpdZW6-12" value="" style="edgeStyle=none;curved=1;rounded=0;orthogonalLoop=1;jettySize=auto;html=1;fontSize=12;startSize=8;endSize=8;" edge="1" parent="1" source="8o0WiqyueD_pK0ntcIQN-27" target="TZxyhcO4MmRTKTHpdZW6-4">
          <mxGeometry relative="1" as="geometry" />
        </mxCell>
        <mxCell id="8o0WiqyueD_pK0ntcIQN-27" value="1" style="ellipse;whiteSpace=wrap;html=1;aspect=fixed;fontFamily=Times New Roman;fontSize=14;" parent="1" vertex="1">
          <mxGeometry x="650" y="65" width="40" height="40" as="geometry" />
        </mxCell>
        <mxCell id="GTT3OiRXgn_7U39BLmP_-3" value="2" style="ellipse;whiteSpace=wrap;html=1;aspect=fixed;fontFamily=Times New Roman;fontSize=14;" parent="1" vertex="1">
          <mxGeometry x="460" y="880" width="40" height="40" as="geometry" />
        </mxCell>
        <mxCell id="E9pD4ErWtiB1vOTbF7-b-3" value="" style="edgeStyle=orthogonalEdgeStyle;rounded=0;orthogonalLoop=1;jettySize=auto;html=1;" parent="1" source="GTT3OiRXgn_7U39BLmP_-5" target="8o0WiqyueD_pK0ntcIQN-22" edge="1">
          <mxGeometry relative="1" as="geometry" />
        </mxCell>
        <mxCell id="GTT3OiRXgn_7U39BLmP_-5" value="2" style="ellipse;whiteSpace=wrap;html=1;aspect=fixed;fontFamily=Times New Roman;fontSize=14;" parent="1" vertex="1">
          <mxGeometry x="1000" y="45" width="40" height="40" as="geometry" />
        </mxCell>
        <mxCell id="41b57TqwvEw0KBt_91cO-9" value="" style="edgeStyle=orthogonalEdgeStyle;rounded=0;orthogonalLoop=1;jettySize=auto;html=1;" parent="1" source="41b57TqwvEw0KBt_91cO-5" target="41b57TqwvEw0KBt_91cO-8" edge="1">
          <mxGeometry relative="1" as="geometry" />
        </mxCell>
        <mxCell id="41b57TqwvEw0KBt_91cO-5" value="Заполнения формы бронирования" style="rounded=0;whiteSpace=wrap;html=1;fontFamily=Times New Roman;fontSize=14;" parent="1" vertex="1">
          <mxGeometry x="140" y="260" width="200" height="80" as="geometry" />
        </mxCell>
        <mxCell id="41b57TqwvEw0KBt_91cO-12" style="edgeStyle=orthogonalEdgeStyle;rounded=0;orthogonalLoop=1;jettySize=auto;html=1;entryX=0.5;entryY=0;entryDx=0;entryDy=0;" parent="1" source="41b57TqwvEw0KBt_91cO-8" target="GTT3OiRXgn_7U39BLmP_-3" edge="1">
          <mxGeometry relative="1" as="geometry" />
        </mxCell>
        <mxCell id="TZxyhcO4MmRTKTHpdZW6-2" style="edgeStyle=orthogonalEdgeStyle;rounded=0;orthogonalLoop=1;jettySize=auto;html=1;fontSize=12;startSize=8;endSize=8;entryX=0.5;entryY=0;entryDx=0;entryDy=0;exitX=0;exitY=0.5;exitDx=0;exitDy=0;" edge="1" parent="1" source="41b57TqwvEw0KBt_91cO-8" target="TZxyhcO4MmRTKTHpdZW6-16">
          <mxGeometry relative="1" as="geometry">
            <mxPoint x="80" y="600" as="targetPoint" />
            <Array as="points">
              <mxPoint x="80" y="415" />
              <mxPoint x="80" y="480" />
              <mxPoint x="240" y="480" />
            </Array>
          </mxGeometry>
        </mxCell>
        <mxCell id="41b57TqwvEw0KBt_91cO-8" value="Пользователь авторизован?" style="rhombus;whiteSpace=wrap;html=1;fontFamily=Times New Roman;fontSize=14;" parent="1" vertex="1">
          <mxGeometry x="140" y="370" width="200" height="90" as="geometry" />
        </mxCell>
        <mxCell id="41b57TqwvEw0KBt_91cO-11" value="Нет" style="text;html=1;align=center;verticalAlign=middle;resizable=0;points=[];autosize=1;strokeColor=none;fillColor=none;fontFamily=Times New Roman;fontSize=14;" parent="1" vertex="1">
          <mxGeometry x="340" y="390" width="50" height="30" as="geometry" />
        </mxCell>
        <mxCell id="TZxyhcO4MmRTKTHpdZW6-3" value="Да" style="text;html=1;align=center;verticalAlign=middle;resizable=0;points=[];autosize=1;strokeColor=none;fillColor=none;fontFamily=Times New Roman;fontSize=14;" vertex="1" parent="1">
          <mxGeometry x="100" y="390" width="40" height="30" as="geometry" />
        </mxCell>
        <mxCell id="TZxyhcO4MmRTKTHpdZW6-15" style="edgeStyle=none;curved=1;rounded=0;orthogonalLoop=1;jettySize=auto;html=1;entryX=0.5;entryY=0;entryDx=0;entryDy=0;fontSize=12;startSize=8;endSize=8;" edge="1" parent="1" source="TZxyhcO4MmRTKTHpdZW6-4" target="TZxyhcO4MmRTKTHpdZW6-5">
          <mxGeometry relative="1" as="geometry" />
        </mxCell>
        <mxCell id="TZxyhcO4MmRTKTHpdZW6-4" value="Ожидание подтверждение брони" style="rounded=0;whiteSpace=wrap;html=1;fontFamily=Times New Roman;fontSize=14;" vertex="1" parent="1">
          <mxGeometry x="570" y="150" width="200" height="75" as="geometry" />
        </mxCell>
        <mxCell id="TZxyhcO4MmRTKTHpdZW6-10" value="" style="edgeStyle=none;curved=1;rounded=0;orthogonalLoop=1;jettySize=auto;html=1;fontSize=12;startSize=8;endSize=8;" edge="1" parent="1" source="TZxyhcO4MmRTKTHpdZW6-5" target="TZxyhcO4MmRTKTHpdZW6-7">
          <mxGeometry relative="1" as="geometry" />
        </mxCell>
        <mxCell id="TZxyhcO4MmRTKTHpdZW6-5" value="Выбор подтверждённой брони" style="rounded=0;whiteSpace=wrap;html=1;fontFamily=Times New Roman;fontSize=14;" vertex="1" parent="1">
          <mxGeometry x="570" y="265" width="200" height="75" as="geometry" />
        </mxCell>
        <mxCell id="TZxyhcO4MmRTKTHpdZW6-9" value="" style="edgeStyle=none;curved=1;rounded=0;orthogonalLoop=1;jettySize=auto;html=1;fontSize=12;startSize=8;endSize=8;" edge="1" parent="1" source="TZxyhcO4MmRTKTHpdZW6-7" target="TZxyhcO4MmRTKTHpdZW6-8">
          <mxGeometry relative="1" as="geometry" />
        </mxCell>
        <mxCell id="TZxyhcO4MmRTKTHpdZW6-7" value="Оплата забронированного тура" style="rounded=0;whiteSpace=wrap;html=1;fontFamily=Times New Roman;fontSize=14;" vertex="1" parent="1">
          <mxGeometry x="570" y="382.5" width="200" height="75" as="geometry" />
        </mxCell>
        <mxCell id="TZxyhcO4MmRTKTHpdZW6-8" value="Конец" style="rounded=1;whiteSpace=wrap;html=1;arcSize=50;fontFamily=Times New Roman;fontSize=14;" vertex="1" parent="1">
          <mxGeometry x="570" y="500" width="200" height="40" as="geometry" />
        </mxCell>
        <mxCell id="TZxyhcO4MmRTKTHpdZW6-17" style="edgeStyle=orthogonalEdgeStyle;rounded=0;orthogonalLoop=1;jettySize=auto;html=1;fontSize=12;startSize=8;endSize=8;entryX=0.5;entryY=0;entryDx=0;entryDy=0;" edge="1" parent="1" source="TZxyhcO4MmRTKTHpdZW6-16" target="8o0WiqyueD_pK0ntcIQN-4">
          <mxGeometry relative="1" as="geometry">
            <mxPoint x="80" y="542" as="targetPoint" />
            <Array as="points">
              <mxPoint x="80" y="542" />
              <mxPoint x="80" y="610" />
              <mxPoint x="240" y="610" />
            </Array>
          </mxGeometry>
        </mxCell>
        <mxCell id="TZxyhcO4MmRTKTHpdZW6-19" style="edgeStyle=none;curved=1;rounded=0;orthogonalLoop=1;jettySize=auto;html=1;fontSize=12;startSize=8;endSize=8;startArrow=none;startFill=0;endArrow=none;" edge="1" parent="1" source="TZxyhcO4MmRTKTHpdZW6-16">
          <mxGeometry relative="1" as="geometry">
            <mxPoint x="480" y="541.9999999999998" as="targetPoint" />
          </mxGeometry>
        </mxCell>
        <mxCell id="TZxyhcO4MmRTKTHpdZW6-16" value="Пользователь&amp;nbsp;&lt;div&gt;не заблокирован?&lt;/div&gt;" style="rhombus;whiteSpace=wrap;html=1;fontFamily=Times New Roman;fontSize=14;" vertex="1" parent="1">
          <mxGeometry x="140" y="499" width="200" height="86" as="geometry" />
        </mxCell>
        <mxCell id="TZxyhcO4MmRTKTHpdZW6-18" value="Да" style="text;html=1;align=center;verticalAlign=middle;resizable=0;points=[];autosize=1;strokeColor=none;fillColor=none;fontFamily=Times New Roman;fontSize=14;" vertex="1" parent="1">
          <mxGeometry x="100" y="510" width="40" height="30" as="geometry" />
        </mxCell>
        <mxCell id="TZxyhcO4MmRTKTHpdZW6-20" value="Нет" style="text;html=1;align=center;verticalAlign=middle;resizable=0;points=[];autosize=1;strokeColor=none;fillColor=none;fontFamily=Times New Roman;fontSize=14;" vertex="1" parent="1">
          <mxGeometry x="340" y="510" width="50" height="30" as="geometry" />
        </mxCell>
      </root>
    </mxGraphModel>
  </diagram>
</mxfile>
